# File created by Blade
# Date/Time:  Tue Jan 27 19:32:37 2015
# Frame Rate: 120.000 fps
#------------------------------------------------------
:FULLY-SPECIFIED
:DEGREES
3780
root 2.742980 32.290868 0.087996 -3.467489 -16.099444 -1.735637
Spine 4.159876 -17.115729 -2.468335
Head 21.116115 8.969988 6.754522
LeftShoulder -13.217625 1.256117 28.914977
LeftArm -5.229650 40.465926 -108.083700
LeftForeArm 3.866405 -0.000000 15.234548
LeftHand 10.338019 0.000000 -4.825145
LeftHandThumb1 -26.253704 0.000000 33.147579
RightShoulder -29.815533 -28.598858 -33.752971
RightArm -1.592759 9.878756 45.101645
RightForeArm 12.332459 -0.000000 129.515759
RightHand 28.633463 -0.000000 -26.382330
RightHandThumb1 -24.326973 -0.000000 -32.862282
LeftUpLeg 14.990071 15.720947 3.178967
LeftLeg -0.091435 -0.000000 0.000000
LeftFoot -21.734178 18.879147 -25.645534
LeftToeBase 16.153973 -0.000000 -0.000000
RightUpLeg 7.224598 5.561062 5.491489
RightLeg 2.676611 -0.000000 -0.000000
RightFoot -10.923124 -12.402249 12.826210
RightToeBase 11.936761 -0.000000 -0.000000
3781
root 2.742756 32.290423 0.082170 -3.479507 -16.274345 -1.768456
Spine 4.210383 -17.061385 -2.522315
Head 21.106321 8.872565 6.851539
LeftShoulder -13.212680 1.266071 28.965497
LeftArm -5.206653 40.547849 -108.101511
LeftForeArm 3.861328 -0.000000 15.128797
LeftHand 10.372474 -0.000000 -4.646329
LeftHandThumb1 -26.253704 0.000000 33.147579
RightShoulder -29.911087 -28.944898 -33.568894
RightArm -0.166426 6.200537 44.426261
RightForeArm 12.312361 -0.000000 128.518802
RightHand 28.379110 -0.000000 -25.444025
RightHandThumb1 -24.326973 -0.000000 -32.862282
LeftUpLeg 15.027824 15.793603 3.211028
LeftLeg -0.081724 -0.000000 0.000000
LeftFoot -21.804528 18.948025 -25.687520
LeftToeBase 16.167733 -0.000000 -0.000000
RightUpLeg 7.204948 5.640261 5.525301
RightLeg 2.712367 -0.000000 -0.000000
RightFoot -10.883462 -12.319686 12.811039
RightToeBase 12.224471 -0.000000 -0.000000
3782
root 2.743559 32.289909 0.075845 -3.488110 -16.446317 -1.795796
Spine 4.261330 -17.025222 -2.575365
Head 21.068777 8.768938 6.874847
LeftShoulder -13.234472 1.263971 29.007707
LeftArm -5.212984 40.616797 -108.112531
LeftForeArm 3.842441 0.000000 15.062440
LeftHand 10.450922 -0.000000 -4.585868
LeftHandThumb1 -26.253704 0.000000 33.147579
RightShoulder -29.860880 -28.991807 -33.592739
RightArm 1.002440 2.341772 43.647175
RightForeArm 12.587362 -0.000000 127.482203
RightHand 28.442672 0.000000 -25.414931
RightHandThumb1 -24.326973 -0.000000 -32.862282
LeftUpLeg 15.053904 15.876692 3.237527
LeftLeg -0.058100 -0.000000 0.000000
LeftFoot -21.879134 19.005618 -25.724357
LeftToeBase 16.209183 -0.000000 -0.000000
RightUpLeg 7.179911 5.721553 5.550931
RightLeg 2.741014 -0.000000 -0.000000
RightFoot -10.828695 -12.273730 12.764418
RightToeBase 11.899648 -0.000000 -0.000000
3783
root 2.745529 32.289395 0.066941 -3.477531 -16.620087 -1.825371
Spine 4.289624 -16.963562 -2.605527
Head 21.037287 8.713458 6.923264
LeftShoulder -13.221124 1.251414 29.026162
LeftArm -5.231961 40.589960 -108.093661
LeftForeArm 3.859167 0.000000 15.070897
LeftHand 10.482189 0.000000 -4.622119
LeftHandThumb1 -26.253704 0.000000 33.147579
RightShoulder -29.766979 -28.974828 -33.648993
RightArm 2.141198 -1.364323 42.765744
RightForeArm 12.730110 -0.000000 126.442944
RightHand 28.441806 -0.000000 -24.716700
RightHandThumb1 -24.326973 -0.000000 -32.862282
LeftUpLeg 15.055975 15.918778 3.246822
LeftLeg -0.037740 -0.000000 0.000000
LeftFoot -21.945391 19.081042 -25.777865
LeftToeBase 16.096917 -0.000000 -0.000000
RightUpLeg 7.126119 5.813977 5.574307
RightLeg 2.785240 -0.000000 -0.000000
RightFoot -10.812231 -12.200838 12.796733
RightToeBase 11.976485 -0.000000 -0.000000
3784
root 2.749131 32.289397 0.057592 -3.494381 -16.801488 -1.848837
Spine 4.356019 -16.874617 -2.654553
Head 20.994778 8.588521 6.927172
LeftShoulder -13.185865 1.249061 29.045300
LeftArm -5.207355 40.520302 -108.044271
LeftForeArm 3.910853 -0.000000 15.090983
LeftHand 10.466908 -0.000000 -4.734678
LeftHandThumb1 -26.253704 0.000000 33.147579
RightShoulder -29.727824 -29.075066 -33.628182
RightArm 3.402516 -4.904786 41.809346
RightForeArm 12.919939 -0.000000 125.379286
RightHand 28.939799 0.000000 -24.230404
RightHandThumb1 -24.326973 -0.000000 -32.862282
LeftUpLeg 15.080856 16.004124 3.264567
LeftLeg -0.011263 -0.000000 0.000000
LeftFoot -22.029692 19.158873 -25.807650
LeftToeBase 16.203506 -0.000000 -0.000000
RightUpLeg 7.091503 5.902384 5.588761
RightLeg 2.841392 -0.000000 -0.000000
RightFoot -10.771353 -12.089927 12.771619
RightToeBase 12.264873 -0.000000 -0.000000
3785
root 2.751051 32.288349 0.051156 -3.495853 -16.967371 -1.875048
Spine 4.406712 -16.772384 -2.683014
Head 20.912882 8.482844 6.931083
LeftShoulder -13.168746 1.201472 29.072501
LeftArm -5.241305 40.503261 -108.035637
LeftForeArm 3.922509 0.000000 15.118740
LeftHand 10.479496 -0.000000 -4.848783
LeftHandThumb1 -26.253704 0.000000 33.147579
RightShoulder -29.608073 -29.116321 -33.618717
RightArm 4.506954 -8.301376 40.722535
RightForeArm 13.019487 -0.000000 124.472295
RightHand 29.351843 -0.000000 -24.618962
RightHandThumb1 -24.326973 -0.000000 -32.862282
LeftUpLeg 15.099290 16.084888 3.286164
LeftLeg 0.007415 -0.000000 -0.000000
LeftFoot -22.088375 19.222687 -25.809769
LeftToeBase 16.202350 -0.000000 -0.000000
RightUpLeg 7.061927 5.936280 5.603363
RightLeg 2.862438 -0.000000 -0.000000
RightFoot -10.724530 -11.994376 12.754395
RightToeBase 11.999735 -0.000000 -0.000000
3786
root 2.753715 32.288426 0.042417 -3.483195 -17.136988 -1.892189
Spine 4.441832 -16.641760 -2.703650
Head 20.820805 8.383344 6.905985
LeftShoulder -13.175925 1.172410 29.084008
LeftArm -5.203410 40.583524 -107.988446
LeftForeArm 3.892892 -0.000000 15.099600
LeftHand 10.447525 -0.000000 -4.877441
LeftHandThumb1 -26.253704 0.000000 33.147579
RightShoulder -29.527344 -29.205925 -33.618107
RightArm 5.646506 -11.448543 39.697998
RightForeArm 12.709779 0.000000 123.555729
RightHand 29.568512 -0.000000 -24.276580
RightHandThumb1 -24.326973 -0.000000 -32.862282
LeftUpLeg 15.100262 16.147743 3.288770
LeftLeg 0.018438 -0.000000 -0.000000
LeftFoot -22.149707 19.284957 -25.870292
LeftToeBase 16.179160 -0.000000 -0.000000
RightUpLeg 7.019472 6.016772 5.620933
RightLeg 2.862440 -0.000000 -0.000000
RightFoot -10.536841 -11.945649 12.479905
RightToeBase 11.759844 -0.000000 -0.000000
3787
root 2.757029 32.288063 0.035026 -3.470471 -17.290947 -1.912825
Spine 4.472370 -16.482477 -2.715424
Head 20.730955 8.288588 6.896209
LeftShoulder -13.158722 1.113747 29.124487
LeftArm -5.178849 40.632351 -107.979153
LeftForeArm 3.837987 -0.000000 15.073665
LeftHand 10.356711 0.000000 -4.936323
LeftHandThumb1 -26.253704 0.000000 33.147579
RightShoulder -29.396029 -29.181526 -33.609142
RightArm 6.564991 -14.349005 38.624871
RightForeArm 12.087590 -0.000000 122.764775
RightHand 29.897685 0.000000 -22.915168
RightHandThumb1 -24.326973 -0.000000 -32.862282
LeftUpLeg 15.109050 16.211866 3.294898
LeftLeg 0.012610 -0.000000 -0.000000
LeftFoot -22.202359 19.340370 -25.917847
LeftToeBase 16.186138 -0.000000 -0.000000
RightUpLeg 6.979912 6.097826 5.625090
RightLeg 2.885757 -0.000000 -0.000000
RightFoot -10.609298 -11.857401 12.678962
RightToeBase 11.943669 -0.000000 -0.000000
3788
root 2.760479 32.288124 0.026426 -3.441944 -17.426608 -1.933881
Spine 4.484880 -16.330530 -2.713495
Head 20.631394 8.202590 6.873363
LeftShoulder -13.157845 1.098020 29.163732
LeftArm -5.082453 40.736475 -107.935713
LeftForeArm 3.805499 -0.000000 15.012799
LeftHand 10.406309 -0.000000 -4.916176
LeftHandThumb1 -26.253704 0.000000 33.147579
RightShoulder -29.375887 -29.302391 -33.516598
RightArm 7.692703 -16.838684 37.529605
RightForeArm 11.366588 -0.000000 121.953436
RightHand 30.186690 -0.000000 -22.187471
RightHandThumb1 -24.326973 -0.000000 -32.862282
LeftUpLeg 15.086241 16.259136 3.295214
LeftLeg 0.026442 -0.000000 -0.000000
LeftFoot -22.269565 19.397693 -25.962755
LeftToeBase 16.156279 -0.000000 -0.000000
RightUpLeg 6.935643 6.103181 5.628374
RightLeg 2.859864 -0.000000 -0.000000
RightFoot -10.409718 -11.734238 12.457762
RightToeBase 11.722411 -0.000000 -0.000000
3789
root 2.765177 32.288775 0.021801 -3.422947 -17.521204 -1.951396
Spine 4.491458 -16.197099 -2.687978
Head 20.557867 8.135822 6.799848
LeftShoulder -13.149811 1.103244 29.183161
LeftArm -4.959432 40.843070 -107.876757
LeftForeArm 3.810072 -0.000000 14.962103
LeftHand 10.478223 0.000000 -4.906540
LeftHandThumb1 -26.253704 0.000000 33.147579
RightShoulder -29.439817 -29.613014 -33.365811
RightArm 8.916250 -18.968479 36.503097
RightForeArm 9.944043 -0.000000 121.290467
RightHand 29.993048 -0.000000 -21.301828
RightHandThumb1 -24.326973 -0.000000 -32.862282
LeftUpLeg 15.079965 16.273041 3.287724
LeftLeg 0.019695 -0.000000 -0.000000
LeftFoot -22.310694 19.472803 -25.984558
LeftToeBase 16.181061 -0.000000 -0.000000
RightUpLeg 6.924568 6.112064 5.627986
RightLeg 2.814197 -0.000000 -0.000000
RightFoot -10.324261 -11.679602 12.393727
RightToeBase 11.427487 -0.000000 -0.000000
3790
root 2.771280 32.289244 0.013875 -3.400843 -17.623295 -1.965523
Spine 4.520763 -16.042152 -2.669190
Head 20.428734 8.087362 6.751150
LeftShoulder -13.137085 1.059645 29.223675
LeftArm -4.893297 40.871889 -107.835523
LeftForeArm 3.838527 0.000000 14.987516
LeftHand 10.422909 -0.000000 -4.926011
LeftHandThumb1 -26.253704 0.000000 33.147579
RightShoulder -29.408249 -29.634998 -33.280356
RightArm 9.757997 -20.869741 35.574725
RightForeArm 8.932696 -0.000000 120.699973
RightHand 29.984050 -0.000000 -20.787553
RightHandThumb1 -24.326973 -0.000000 -32.862282
LeftUpLeg 15.061442 16.310822 3.277905
LeftLeg 0.019331 -0.000000 -0.000000
LeftFoot -22.326213 19.545810 -25.966147
LeftToeBase 16.101816 -0.000000 -0.000000
RightUpLeg 6.890272 6.142062 5.625536
RightLeg 2.796379 -0.000000 -0.000000
RightFoot -10.285838 -11.600287 12.425419
RightToeBase 11.715317 -0.000000 -0.000000
3791
root 2.778429 32.290205 0.006490 -3.363684 -17.677536 -1.973851
Spine 4.521473 -15.914321 -2.630535
Head 20.317997 8.041252 6.668512
LeftShoulder -13.119463 1.043314 29.244418
LeftArm -4.786516 40.908112 -107.778852
LeftForeArm 3.876142 -0.000000 14.994967
LeftHand 10.354035 -0.000000 -4.786008
LeftHandThumb1 -26.253704 0.000000 33.147579
RightShoulder -29.410524 -29.818802 -33.152221
RightArm 10.550294 -22.257138 34.826181
RightForeArm 8.512622 -0.000000 120.205213
RightHand 29.610731 0.000000 -19.841929
RightHandThumb1 -24.326973 -0.000000 -32.862282
LeftUpLeg 15.022722 16.335826 3.260620
LeftLeg 0.008843 -0.000000 -0.000000
LeftFoot -22.328539 19.566594 -25.963809
LeftToeBase 16.058057 -0.000000 -0.000000
RightUpLeg 6.853496 6.121143 5.612213
RightLeg 2.756604 -0.000000 -0.000000
RightFoot -10.223292 -11.537429 12.382270
RightToeBase 11.716920 -0.000000 -0.000000
3792
root 2.786808 32.291653 0.000870 -3.322937 -17.706934 -1.969052
Spine 4.512510 -15.855396 -2.588564
Head 20.214666 8.100488 6.569013
LeftShoulder -13.140250 1.049566 29.241173
LeftArm -4.724642 40.892200 -107.703443
LeftForeArm 3.934855 -0.000000 15.115520
LeftHand 10.242427 -0.000000 -4.706399
LeftHandThumb1 -26.253704 0.000000 33.147579
RightShoulder -29.337530 -29.999183 -33.080149
RightArm 11.200819 -23.474298 34.265495
RightForeArm 8.063518 -0.000000 119.755910
RightHand 30.174835 -0.000000 -19.825669
RightHandThumb1 -24.326973 -0.000000 -32.862282
LeftUpLeg 14.976230 16.330996 3.220564
LeftLeg -0.008752 -0.000000 0.000000
LeftFoot -22.347087 19.608658 -25.994794
LeftToeBase 16.187658 -0.000000 -0.000000
RightUpLeg 6.817302 6.086028 5.587359
RightLeg 2.705480 -0.000000 -0.000000
RightFoot -10.155862 -11.540366 12.306143
RightToeBase 11.439271 -0.000000 -0.000000
